Coordinates
version=1
nRows=12
nColumns=34
inDegrees=yes

Units are S.I. units (second, meters, Newtons, ...)
If the header above contains a line with 'inDegrees', this indicates whether rotational values are in degrees (yes) or radians (no).

endheader
time	pelvis_tilt	pelvis_list	pelvis_rotation	pelvis_tx	pelvis_ty	pelvis_tz	hip_flexion_r	hip_adduction_r	hip_rotation_r	knee_angle_r	ankle_angle_r	subtalar_angle_r	mtp_angle_r	hip_flexion_l	hip_adduction_l	hip_rotation_l	knee_angle_l	ankle_angle_l	subtalar_angle_l	mtp_angle_l	lumbar_extension	lumbar_bending	lumbar_rotation	arm_flex_r	arm_add_r	arm_rot_r	elbow_flex_r	pro_sup_r	arm_flex_l	arm_add_l	arm_rot_l	elbow_flex_l	pro_sup_l
      0.41666670	    -28.50822860	      0.60864801	     38.46506604	      2.47972228	      1.29406092	     -0.09467019	     15.53638482	    -27.71660709	     39.99999995	      7.53368656	    -38.10346674	     35.00000000	      0.00000000	     36.35537063	      8.28449352	    -39.99999995	     29.91349245	      4.35927137	     -0.03553612	      0.00000000	      3.75934631	    -27.56955181	     21.03109742	     84.11608275	     32.85613707	     -1.87215202	     39.86132402	     48.73738313	     86.49042407	     14.25430846	     -3.03610004	     34.91211159	     26.51018817
      0.43333330	    -25.33361527	     -2.42189208	     39.55158834	      2.47839672	      1.30154887	     -0.12296168	     16.66752818	    -23.48423439	     37.66232667	      9.84096294	    -34.28991394	     35.00000000	      0.00000000	     32.75555239	      4.17190072	    -34.54890853	     26.64631190	      3.98852995	      3.85823711	      0.00000000	      3.18703193	    -22.77069921	     25.65639674	     79.96232321	     33.41805808	    -14.84675493	     43.35392702	     68.26606518	     80.34647407	     23.03118228	    -12.86569310	     39.02351527	     42.37055763
      0.45000000	    -21.68417777	     -7.59436298	     44.24296729	      2.47055411	      1.30721913	     -0.15327228	     18.27846308	    -18.83736119	     29.91271662	     11.89672494	    -31.82634798	     35.00000000	      0.00000000	     29.62766424	      0.04820360	    -29.17451987	     19.49792609	      3.42030569	      9.41425380	      0.00000000	      2.60850621	    -16.02893046	     26.42750343	     75.03364778	     32.41480421	    -19.54415144	     49.30074406	     69.06467743	     73.63479750	     30.47376867	    -13.95958896	     42.59123956	     43.13728548
      0.46666670	    -17.53968765	    -11.93015990	     49.78006279	      2.45901495	      1.31346200	     -0.18374295	     19.88142752	    -15.11744185	     21.98549165	     14.60270375	    -27.46644305	     35.00000000	      0.00000000	     28.81151771	     -4.38780617	    -20.49841344	     16.22890442	      3.01868741	     12.25338562	      0.00000000	      1.79738788	     -9.00461305	     27.83043411	     72.37981881	     31.22537781	    -24.96496580	     53.60420738	     70.54915165	     67.70561817	     37.56270954	    -14.13581100	     44.03355219	     44.25178234
      0.48333330	    -13.35060479	    -14.54349255	     56.32016700	      2.45086946	      1.32174571	     -0.20745983	     20.84130023	    -13.14103752	     14.30381921	     17.02993657	    -22.06616624	     35.00000000	      0.00000000	     29.70489107	     -8.40714425	    -10.88201316	     16.13895404	      3.60632390	     14.36896891	      0.00000000	     -0.02993540	     -3.41807737	     29.68391270	     71.26022126	     30.75258701	    -35.08650980	     58.85229445	     87.97107499	     63.30318980	     43.60762012	    -12.55978055	     42.57441163	     48.97614485
      0.50000000	     -8.57648168	    -16.17381503	     63.99056024	      2.43534701	      1.32411161	     -0.23801153	     21.27086306	    -12.47002719	      5.53768239	     19.52761996	    -17.16174863	     35.00000000	      0.00000000	     30.68052319	    -11.07836294	      1.50443938	     16.17649194	      8.19149851	     13.76199216	      0.00000000	     -1.75407873	      2.41510606	     29.09782357	     70.42164747	     28.94980616	    -37.69489182	     61.65522148	     88.05723098	     59.15494547	     48.26585809	    -11.70174857	     41.81285883	     48.77096018
      0.51666670	     -4.55752471	    -17.01991156	     72.18500994	      2.42356439	      1.33192646	     -0.26438900	     20.96442053	    -13.34800390	     -2.99040253	     21.59699849	     -9.66453703	     35.00000000	      0.00000000	     32.46123926	    -12.26747624	     13.29861318	     16.85418997	     19.76938681	      7.90236334	      0.00000000	     -3.21322251	      6.86009055	     28.05158498	     69.94325315	     27.83643758	    -41.99105549	     66.38332579	     90.31733576	     56.64850175	     51.87471260	     -7.85979155	     39.41679644	     47.80188404
      0.53333330	     -0.70796904	    -17.28922855	     81.01406184	      2.41149077	      1.33499781	     -0.29367457	     18.76305084	    -15.01074851	    -12.08916988	     21.68209699	     -3.92628984	     35.00000000	      0.00000000	     34.16530167	    -13.21182380	     22.32167456	     15.75825016	     29.06842379	     -0.95172872	      0.00000000	     -3.19528564	     11.63171259	     25.52832679	     68.60393213	     26.35983907	    -44.57818472	     69.24475448	     91.48963893	     54.78560342	     54.52972451	     -5.10936655	     37.50927347	     46.87815362
      0.55000000	      4.87436892	    -15.94424181	     90.59633023	      2.39652001	      1.32872356	     -0.31802127	     13.77459030	    -14.74244787	    -21.36308636	     20.16376342	      2.08359814	     35.00000000	      0.00000000	     34.08138847	    -16.98003078	     26.16483841	     12.66174726	     28.85978239	     -6.25642981	      0.00000000	     -2.12711068	     17.71578446	     24.81110667	     68.29831130	     22.95976573	    -51.60925942	     72.47490237	    101.72864678	     51.57953503	     57.34724038	      5.06279504	     34.77250466	     35.97785204
      0.56666670	      8.73609530	    -14.69755290	     95.50929906	      2.38557876	      1.32240752	     -0.34239479	     11.42890991	    -14.06716593	    -26.41383717	     19.45226934	      5.10129166	     35.00000000	      0.00000000	     32.62870643	    -18.08144349	     31.86134319	     12.10266975	     29.26086123	     -3.76314207	      0.00000000	     -1.32566064	     21.44182391	     23.71861114	     67.44810639	     20.85251102	    -55.33796356	     73.56003533	    101.53190240	     47.92661393	     59.40727095	      7.75468695	     35.58451093	     36.31311386
      0.58333330	     13.40574770	    -13.05290124	     97.73669822	      2.37791993	      1.31908048	     -0.36822447	     10.21657007	    -11.98176682	    -29.21136181	     18.84246541	      6.60071794	     35.00000000	      0.00000000	     29.72393710	    -20.87655449	     35.28772625	     11.17686506	     23.18869473	     11.62415157	      0.00000000	     -0.64707688	     25.96751850	     25.37121819	     66.39161659	     17.88618705	    -59.42544177	     74.78518178	    102.31355185	     42.05170568	     60.89741661	     11.53410101	     38.24555093	     37.27081971
      0.60000000	     16.39804863	    -10.72178010	    101.57346453	      2.36675647	      1.31133745	     -0.39614941	      7.00012533	    -11.90314999	    -33.45954908	     18.86119996	     10.42266544	     33.88694888	      0.00000000	     27.94769576	    -22.70647375	     38.69756196	     10.01293503	     18.45259071	     22.62903431	      0.00000000	      0.07543269	     28.70453259	     25.04217007	     65.92205033	     14.94103110	    -64.23652437	     76.24607204	    104.13998115	     33.28614902	     62.81515002	     18.60035495	     41.10419172	     39.51244153
